<svg width="720" height="180" viewBox="0 0 720 180" fill="none" xmlns="http://www.w3.org/2000/svg" role="img" aria-labelledby="title desc">
  <title id="title">Clew Code logo</title>
  <desc id="desc">A thread-like coding mark with the Clew Code wordmark.</desc>
  <defs>
    <linearGradient id="g" x1="48" y1="24" x2="158" y2="154" gradientUnits="userSpaceOnUse">
      <stop stop-color="#A855F7"/>
      <stop offset=".52" stop-color="#7C3AED"/>
      <stop offset="1" stop-color="#A855F7"/>
    </linearGradient>
    <filter id="soft" x="-20%" y="-20%" width="140%" height="140%">
      <feDropShadow dx="0" dy="12" stdDeviation="12" flood-color="#111827" flood-opacity=".18"/>
    </filter>
  </defs>
  <rect x="24" y="24" width="132" height="132" rx="32" fill="#0B1020" filter="url(#soft)"/>
  <path d="M54 91c0-29 24-53 53-53 18 0 34 9 44 23" stroke="url(#g)" stroke-width="12" stroke-linecap="round"/>
  <path d="M126 67c-13-9-34-6-47 7-18 18-16 47 3 62 21 16 51 8 62-15" stroke="url(#g)" stroke-width="12" stroke-linecap="round"/>
  <path d="M70 96h42c10 0 18 8 18 18s-8 18-18 18H78" stroke="#E5E7EB" stroke-width="10" stroke-linecap="round"/>
  <path d="M72 70 52 90l20 20" stroke="#F8FAFC" stroke-width="9" stroke-linecap="round" stroke-linejoin="round"/>
  <path d="M118 59h26" stroke="#C084FC" stroke-width="9" stroke-linecap="round"/>
  <circle cx="107" cy="91" r="8" fill="#C084FC"/>
  <circle cx="136" cy="121" r="6" fill="#C084FC"/>
  <text x="190" y="94" fill="#E4E4E7" font-family="Inter, ui-sans-serif, system-ui, sans-serif" font-size="58" font-weight="800" letter-spacing="-.5">
    Clew Code
  </text>
  <text x="194" y="127" fill="#A1A1AA" font-family="Inter, ui-sans-serif, system-ui, sans-serif" font-size="20" font-weight="500">
    open-source AI coding agent CLI
  </text>
</svg>
